<svg preserveAspectRatio="none" overflow="visible" style="display: block;" width="64.2708" height="27.562" viewBox="0 0 64.2708 27.562" fill="none" xmlns="http://www.w3.org/2000/svg">
<g id="Wick-suit">
<path id="Fill-1" fill-rule="evenodd" clip-rule="evenodd" d="M39.7711 1.00893H41.0437C53.6952 1.00893 63.951 11.5759 63.951 24.6113V27.5616H0.319595V24.6113L0.322777 24.2209C0.525125 11.3658 10.702 1.00893 23.2269 1.00893H24.4995C24.4995 1.00893 24.4369 5.08066 32.1328 5.08066C39.8287 5.08066 39.7711 1.00893 39.7711 1.00893Z" fill="#EDEDED"/>
<path id="Fill-4" fill-rule="evenodd" clip-rule="evenodd" d="M37.835 27.5616L34.3833 9.53626C35.6658 9.10243 36.5254 8.31949 36.5254 7.42256C36.5254 6.05641 34.5359 4.94852 32.0824 4.94852C29.6285 4.94852 27.6393 6.05641 27.6393 7.42256C27.6393 8.31949 28.499 9.10243 29.7815 9.53626L26.3298 27.5616H37.835Z" fill="#60ADE6"/>
<path id="Fill-7" fill-rule="evenodd" clip-rule="evenodd" d="M27.7696 10.2331L32.1419 5.60381L36.5143 10.2331L45.4524 0.769382C44.0526 0.489007 42.61 0.33657 41.1331 0.33657H39.8477C39.8477 0.33657 39.9058 4.56295 32.1326 4.56295C24.3593 4.56295 24.423 0.33657 24.423 0.33657H23.1375C21.6645 0.33657 20.2254 0.487646 18.8288 0.76666L27.7696 10.2331Z" fill="white"/>
<path id="Fill-9" fill-rule="evenodd" clip-rule="evenodd" d="M41.1333 0.00044234H39.8546V27.5616H64.2708V24.4992C64.2708 10.9688 53.9119 0.00044234 41.1333 0.00044234Z" fill="#191919"/>
<path id="Fill-12" fill-rule="evenodd" clip-rule="evenodd" d="M24.423 0.000799041H23.1375C10.4868 0.000799041 0.207595 10.751 0.00289219 24.0944L0 24.4996V27.562H24.423V0.000799041Z" fill="#191919"/>
<path id="Fill-15" fill-rule="evenodd" clip-rule="evenodd" d="M21.3833 0.0695494L12.8327 14.6089L20.0117 19.0588L15.5905 25.548L17.6915 27.5616H24.423V0.000476366C24.423 0.000476366 23.4268 0.0147673 21.3833 0.0695494Z" fill="#2B2B2B"/>
<path id="Fill-18" fill-rule="evenodd" clip-rule="evenodd" d="M42.9368 0.0758782L51.4447 14.6091L44.2656 19.0587L48.6871 25.5478L46.5855 27.5615L39.8544 27.5612V0C39.8544 0 40.8933 0.0210962 42.9368 0.0758782Z" fill="#2B2B2B"/>
</g>
</svg>
